<svg id="svg" version="1.1" xmlns="http://www.w3.org/2000/svg" xmlns:xlink="http://www.w3.org/1999/xlink" width="400" height="299.6138996138996" viewBox="0, 0, 400,299.6138996138996"><g id="svgg"><path id="path0" d="M0.000 149.813 L 0.000 299.625 200.000 299.625 L 400.000 299.625 400.000 149.813 L 400.000 0.000 200.000 0.000 L 0.000 0.000 0.000 149.813 M300.505 120.415 C 302.071 121.305,304.719 123.710,304.719 124.242 C 304.719 124.474,304.915 124.738,305.154 124.830 C 306.897 125.499,307.072 174.981,305.331 174.981 C 305.199 174.981,304.923 175.388,304.717 175.884 C 304.029 177.547,301.660 179.197,299.084 179.808 C 295.495 180.658,104.681 180.656,100.610 179.805 C 98.109 179.282,97.491 178.958,95.992 177.378 C 92.784 173.998,92.884 174.889,92.884 149.756 C 92.884 129.122,92.905 128.309,93.484 126.660 C 94.647 123.352,97.667 120.523,100.468 120.118 C 103.415 119.692,299.746 119.983,300.505 120.415 M128.261 148.496 C 127.202 148.728,126.090 149.139,125.790 149.411 C 125.419 149.747,124.377 149.976,122.526 150.130 C 119.212 150.404,119.365 150.248,119.813 152.887 C 120.223 155.306,120.649 158.993,120.914 162.420 L 121.090 164.691 122.493 165.193 C 125.401 166.236,129.708 165.622,130.356 164.072 C 130.500 163.728,130.752 161.129,130.916 158.298 C 131.079 155.466,131.379 152.250,131.582 151.151 C 131.937 149.223,131.400 147.886,130.337 148.052 C 130.255 148.065,129.321 148.265,128.261 148.496 " stroke="none" fill="#fcfbfb" fill-rule="evenodd"></path><path id="path1" d="M100.331 120.660 C 99.895 120.728,99.301 121.045,99.011 121.365 C 98.721 121.686,98.321 121.948,98.123 121.948 C 97.785 121.948,96.972 122.718,95.168 124.748 C 94.050 126.005,94.045 126.137,94.142 151.011 L 94.232 173.933 95.281 175.475 C 95.858 176.324,96.599 177.169,96.929 177.354 C 97.258 177.539,97.986 178.025,98.546 178.433 L 99.564 179.176 199.879 179.176 L 300.194 179.176 301.965 177.702 C 303.004 176.837,304.124 175.539,304.677 174.561 L 305.618 172.893 305.618 149.929 L 305.618 126.964 304.740 125.430 C 303.514 123.289,302.414 122.274,299.925 120.987 C 299.213 120.618,102.678 120.297,100.331 120.660 M129.982 130.902 L 133.073 131.133 134.397 132.458 C 135.413 133.474,135.783 134.113,135.986 135.202 C 136.187 136.277,136.558 136.928,137.522 137.892 C 139.974 140.345,140.065 142.415,137.807 144.419 L 136.288 145.768 136.003 148.853 C 135.846 150.550,135.520 152.774,135.279 153.797 C 135.038 154.819,134.831 156.801,134.820 158.202 C 134.749 166.930,132.835 169.588,126.621 169.588 C 118.946 169.588,117.363 168.270,116.888 161.483 C 116.709 158.937,116.425 156.382,116.256 155.805 C 115.587 153.525,115.286 147.716,115.797 146.936 C 116.723 145.524,118.122 146.638,118.489 149.079 C 118.643 150.112,118.784 150.375,119.060 150.146 C 119.262 149.979,120.365 149.754,121.511 149.646 C 122.658 149.539,124.105 149.195,124.728 148.883 C 125.351 148.570,126.098 148.315,126.388 148.315 C 126.677 148.315,127.415 148.060,128.026 147.748 C 130.145 146.668,131.395 146.861,132.489 148.438 C 132.753 148.819,133.113 147.388,132.984 146.472 L 132.884 145.768 124.481 145.709 C 115.690 145.647,115.146 145.575,113.388 144.234 C 111.870 143.076,111.840 139.970,113.331 138.286 L 114.303 137.188 118.324 137.401 C 120.710 137.527,122.660 137.779,123.120 138.019 C 124.030 138.494,127.089 138.553,128.910 138.131 C 129.612 137.968,130.659 137.761,131.236 137.672 C 132.997 137.399,133.424 136.902,132.863 135.779 C 132.231 134.512,131.983 134.419,131.583 135.296 C 131.192 136.154,130.150 136.629,128.659 136.629 C 128.087 136.629,127.291 136.844,126.891 137.107 C 126.150 137.592,124.224 137.486,123.158 136.902 C 122.904 136.763,121.348 136.515,119.700 136.352 C 116.419 136.026,115.356 135.389,115.356 133.749 C 115.356 132.671,116.978 131.294,118.483 131.095 C 121.776 130.661,125.852 130.593,129.982 130.902 M121.348 133.633 C 121.596 133.793,123.281 133.923,125.094 133.923 C 126.906 133.923,128.592 133.793,128.839 133.633 C 129.141 133.438,127.911 133.343,125.094 133.343 C 122.276 133.343,121.046 133.438,121.348 133.633 M115.761 140.522 C 111.302 142.323,128.296 144.317,133.992 142.662 C 137.053 141.772,136.779 139.878,133.685 140.541 C 132.070 140.888,117.688 140.814,116.854 140.456 C 116.607 140.349,116.115 140.379,115.761 140.522 M154.576 141.244 C 154.806 141.423,155.762 141.526,156.699 141.472 C 160.400 141.259,161.373 142.395,161.056 146.562 C 160.843 149.352,160.990 149.706,162.230 149.394 C 162.750 149.264,162.982 148.931,163.139 148.093 C 163.489 146.218,164.333 145.707,165.434 146.703 C 166.010 147.225,165.997 147.985,165.343 151.838 C 164.941 154.207,165.962 155.961,166.475 153.783 C 166.581 153.330,166.917 152.545,167.221 152.039 C 167.524 151.533,167.862 150.320,167.972 149.342 C 168.236 146.999,168.488 146.582,169.789 146.338 C 171.619 145.994,172.288 148.224,170.967 150.262 C 170.533 150.932,170.080 153.800,170.363 154.083 C 170.650 154.371,171.386 153.985,171.386 153.547 C 171.386 153.330,171.567 152.971,171.788 152.750 C 172.009 152.529,172.332 151.235,172.505 149.876 C 172.879 146.949,173.197 146.453,174.626 146.577 C 176.091 146.703,176.492 147.449,175.764 148.695 C 175.412 149.298,175.143 150.481,175.051 151.835 L 174.902 154.007 175.942 154.007 C 176.761 154.007,177.055 153.848,177.324 153.258 C 177.511 152.846,177.810 152.509,177.986 152.509 C 178.163 152.509,178.517 152.004,178.773 151.386 C 179.029 150.768,179.393 150.076,179.582 149.849 C 179.771 149.622,180.127 148.815,180.375 148.054 C 181.117 145.771,183.660 146.194,183.024 148.496 C 182.344 150.959,182.649 154.986,183.413 153.622 C 184.494 151.690,186.966 151.385,186.966 153.184 C 186.966 153.839,184.908 156.404,184.383 156.404 C 183.413 156.404,182.472 158.219,182.467 160.098 C 182.465 161.141,182.277 162.274,182.036 162.697 C 181.801 163.109,181.415 163.862,181.177 164.370 C 180.914 164.936,180.256 165.538,179.486 165.918 L 178.227 166.542 176.990 165.893 C 175.034 164.866,174.837 161.177,176.624 159.053 C 177.039 158.560,177.378 157.973,177.378 157.750 C 177.378 157.527,177.648 157.258,177.978 157.154 C 178.307 157.049,178.577 156.838,178.577 156.684 C 178.577 156.294,177.736 156.357,176.354 156.849 C 175.343 157.209,175.096 157.208,174.565 156.836 C 173.694 156.226,172.471 156.301,171.835 157.004 C 171.193 157.713,170.110 157.782,169.481 157.154 C 168.850 156.523,167.718 156.594,167.111 157.303 C 165.858 158.766,162.612 157.598,161.926 155.437 C 161.694 154.708,161.356 154.772,160.777 155.655 C 160.507 156.067,160.090 156.404,159.851 156.404 C 159.611 156.404,158.974 156.674,158.434 157.003 C 157.634 157.491,156.923 157.601,154.569 157.602 C 150.598 157.603,150.660 157.723,151.033 150.805 C 151.434 143.374,151.542 142.720,152.572 141.547 C 153.435 140.564,153.660 140.530,154.576 141.244 M259.766 144.840 C 259.757 147.945,259.393 151.953,259.010 153.161 C 258.684 154.186,260.216 154.183,261.514 153.156 C 262.986 151.990,263.343 150.799,263.571 146.296 C 263.784 142.094,264.227 140.681,265.237 140.984 C 266.815 141.457,266.988 142.134,266.426 145.618 C 265.360 152.219,265.956 155.051,268.049 153.325 C 268.524 152.932,269.133 152.532,269.400 152.434 C 269.750 152.307,269.925 151.765,270.021 150.511 C 270.470 144.675,276.854 143.181,276.854 148.912 C 276.854 150.778,275.060 153.408,273.788 153.408 C 273.248 153.408,272.659 154.257,272.659 155.036 C 272.659 155.391,272.980 155.506,273.967 155.506 C 275.976 155.506,277.323 153.654,277.620 150.487 C 277.985 146.583,280.830 144.162,283.156 145.775 C 284.798 146.912,285.110 149.946,283.728 151.328 C 283.433 151.623,283.042 152.143,282.860 152.483 C 282.678 152.823,282.163 153.189,281.714 153.296 C 279.960 153.715,279.381 155.472,280.974 155.541 C 282.685 155.615,282.737 155.580,284.644 153.115 C 285.056 152.583,285.578 151.952,285.804 151.714 C 287.045 150.406,287.914 152.785,286.764 154.341 C 286.422 154.803,286.142 155.295,286.142 155.433 C 286.142 157.425,281.235 158.885,278.682 157.652 C 277.498 157.080,277.336 157.067,276.685 157.493 C 274.695 158.797,271.137 158.219,270.074 156.420 C 269.236 155.002,268.639 156.093,269.094 158.212 C 269.568 160.423,269.204 163.356,268.341 164.288 C 266.742 166.013,264.651 166.102,263.813 164.481 C 263.195 163.285,261.683 163.204,261.394 164.352 C 260.969 166.046,258.835 166.178,257.175 164.614 L 256.030 163.535 255.933 159.221 C 255.828 154.567,255.575 154.029,254.147 155.431 C 251.549 157.981,248.936 158.526,247.215 156.876 C 246.176 155.881,244.819 155.919,243.322 156.985 C 242.256 157.744,239.483 157.865,239.214 157.165 C 239.121 156.924,238.800 156.649,238.499 156.553 C 236.534 155.930,236.904 148.572,239.006 146.473 C 240.690 144.792,241.651 144.716,243.192 146.142 C 245.724 148.485,243.574 152.167,240.958 149.967 L 240.073 149.222 239.887 150.154 C 239.183 153.674,240.393 155.374,242.846 154.308 C 244.450 153.611,245.094 152.826,245.342 151.264 C 246.356 144.894,255.269 143.240,255.285 149.419 C 255.288 150.377,255.421 151.363,255.581 151.610 C 255.808 151.962,255.872 151.886,255.876 151.259 C 255.884 149.814,257.102 143.147,257.556 142.059 C 258.754 139.192,259.778 140.481,259.766 144.840 M154.626 145.229 C 154.201 146.760,154.226 147.620,154.701 147.802 C 155.292 148.029,156.794 147.688,157.303 147.210 C 157.551 146.979,158.007 146.615,158.318 146.402 C 159.547 145.561,158.573 144.284,156.624 144.180 L 154.942 144.091 154.626 145.229 M213.641 146.292 C 215.461 148.251,214.371 152.406,211.813 153.265 C 210.660 153.653,209.894 155.047,210.596 155.481 C 211.525 156.055,214.532 154.391,214.532 153.303 C 214.532 152.414,216.925 151.177,217.342 151.851 C 217.710 152.448,216.325 155.604,215.206 156.718 C 213.490 158.424,209.616 158.799,208.212 157.395 C 207.942 157.125,207.711 157.135,207.226 157.437 C 203.926 159.487,201.481 157.020,202.157 152.323 C 202.635 149.006,201.763 147.127,201.032 149.900 C 200.850 150.594,200.502 151.470,200.260 151.849 C 200.017 152.227,199.740 153.238,199.643 154.096 C 199.439 155.915,199.133 156.404,198.199 156.404 C 196.905 156.404,196.181 155.498,196.576 154.371 C 197.629 151.361,195.914 146.652,194.779 149.438 C 194.595 149.891,194.248 150.599,194.009 151.011 C 193.770 151.423,193.420 152.954,193.232 154.412 C 192.895 157.014,192.870 157.072,191.892 157.480 C 189.872 158.324,189.529 157.644,189.968 153.658 C 190.197 151.576,190.200 150.208,189.976 149.000 C 189.560 146.750,189.862 146.435,192.480 146.396 C 193.888 146.375,194.578 146.225,194.942 145.860 C 195.497 145.305,197.591 146.060,198.148 147.016 C 198.349 147.360,198.704 147.270,200.074 146.528 C 202.270 145.339,202.866 145.376,204.356 146.793 L 205.592 147.969 205.500 151.130 C 205.332 156.894,206.739 155.844,207.993 149.270 C 208.435 146.952,210.101 145.231,212.072 145.053 C 212.285 145.034,212.991 145.592,213.641 146.292 M227.715 146.313 C 230.282 146.868,230.747 147.717,229.647 149.844 C 229.091 150.919,228.761 153.357,229.028 154.420 L 229.219 155.183 230.201 154.603 C 230.936 154.170,231.273 153.684,231.545 152.668 C 231.927 151.240,232.492 150.960,233.695 151.603 C 234.191 151.869,234.204 152.000,233.838 153.027 C 233.616 153.649,233.426 154.360,233.416 154.607 C 233.320 156.978,228.398 158.896,227.166 157.042 C 226.680 156.309,226.007 156.230,225.160 156.807 C 223.755 157.765,221.949 157.294,220.754 155.657 C 220.252 154.970,220.503 150.220,221.081 149.479 C 221.388 149.086,221.864 148.325,222.139 147.787 C 222.999 146.110,224.700 145.660,227.715 146.313 M273.708 148.914 C 273.588 149.107,273.625 149.401,273.790 149.565 C 273.990 149.765,274.162 149.748,274.307 149.513 C 274.427 149.320,274.390 149.026,274.225 148.862 C 274.025 148.662,273.853 148.679,273.708 148.914 M210.503 149.706 C 210.393 150.142,210.442 150.637,210.610 150.805 C 210.928 151.123,211.032 150.947,211.331 149.588 C 211.546 148.612,210.749 148.726,210.503 149.706 M224.279 149.738 C 224.166 150.191,223.871 150.990,223.624 151.514 C 222.987 152.859,223.187 153.838,224.120 153.940 C 224.870 154.022,226.517 150.918,226.517 149.421 C 226.517 148.463,224.526 148.745,224.279 149.738 M248.746 150.411 C 247.643 153.066,248.457 155.438,250.251 154.792 C 251.395 154.379,251.508 153.790,250.639 152.757 C 250.202 152.237,249.879 151.467,249.867 150.913 C 249.822 148.887,249.449 148.720,248.746 150.411 M252.354 149.813 C 252.354 150.390,252.416 150.625,252.491 150.337 C 252.567 150.049,252.567 149.577,252.491 149.288 C 252.416 149.000,252.354 149.236,252.354 149.813 M155.955 150.360 C 153.751 150.601,152.410 153.756,154.171 154.559 C 155.728 155.268,158.303 154.443,159.312 152.912 C 159.675 152.361,159.841 151.910,159.680 151.910 C 159.519 151.910,159.240 151.586,159.060 151.190 C 158.716 150.436,157.715 150.168,155.955 150.360 M132.004 153.783 C 131.893 154.154,131.740 155.940,131.664 157.753 C 131.481 162.075,131.999 161.010,132.295 156.456 C 132.505 153.206,132.417 152.396,132.004 153.783 M119.442 160.000 C 119.542 161.566,119.750 163.049,119.905 163.296 C 120.299 163.928,119.996 158.857,119.583 157.903 C 119.335 157.330,119.302 157.825,119.442 160.000 M258.456 158.123 C 258.194 158.385,258.246 161.285,258.521 161.718 C 258.875 162.275,260.075 161.328,260.075 160.492 C 260.075 159.175,258.991 157.588,258.456 158.123 M265.779 158.622 C 265.322 159.824,265.400 161.368,265.940 161.817 C 266.662 162.416,267.025 161.631,266.839 159.873 C 266.643 158.026,266.203 157.507,265.779 158.622 M178.123 162.116 C 178.012 162.624,177.992 163.110,178.079 163.197 C 178.396 163.515,178.876 162.943,178.876 162.247 C 178.876 161.163,178.353 161.071,178.123 162.116 M120.797 165.572 C 120.853 165.862,121.278 166.201,121.742 166.325 C 122.467 166.519,122.534 166.488,122.216 166.105 C 121.541 165.291,120.681 164.968,120.797 165.572 M129.860 165.723 C 129.295 166.348,129.296 166.352,130.035 166.248 C 130.451 166.189,130.825 165.911,130.880 165.618 C 131.015 164.909,130.554 164.957,129.860 165.723 " stroke="none" fill="#f7d905" fill-rule="evenodd"></path><path id="path2" d="M118.801 131.796 C 117.934 132.086,115.955 133.353,115.955 133.619 C 115.955 134.073,117.421 135.411,118.102 135.578 C 119.961 136.035,130.776 135.593,130.880 135.056 C 130.972 134.573,130.563 134.532,125.598 134.532 C 120.794 134.532,120.142 134.472,119.527 133.974 L 118.837 133.415 119.560 133.029 C 120.076 132.753,121.998 132.633,126.259 132.613 C 132.018 132.585,134.073 132.238,131.510 131.725 C 130.269 131.477,119.577 131.536,118.801 131.796 M132.866 133.062 C 132.603 133.489,133.345 134.877,133.762 134.739 C 134.240 134.580,134.332 133.665,133.921 133.169 C 133.490 132.650,133.143 132.615,132.866 133.062 M134.658 135.936 C 134.564 136.235,134.288 136.939,134.043 137.500 C 133.548 138.635,133.797 139.013,135.045 139.022 C 135.409 139.024,135.983 139.322,136.320 139.684 C 136.759 140.155,137.024 140.250,137.256 140.017 C 137.489 139.785,137.488 139.636,137.255 139.492 C 137.075 139.381,136.929 139.061,136.929 138.781 C 136.929 138.501,136.671 138.111,136.357 137.914 C 136.042 137.718,135.694 137.147,135.584 136.647 C 135.342 135.543,134.889 135.196,134.658 135.936 M113.933 138.852 C 112.344 140.464,112.586 143.830,114.260 143.409 C 115.015 143.220,115.019 143.205,114.525 142.345 C 113.778 141.042,114.274 139.962,116.063 138.993 C 117.385 138.277,117.448 138.195,116.806 138.024 C 115.523 137.680,114.915 137.856,113.933 138.852 M118.660 139.314 C 117.722 139.907,118.906 140.078,124.594 140.170 C 131.474 140.282,133.489 140.100,132.596 139.447 C 131.919 138.952,119.421 138.833,118.660 139.314 M137.528 140.869 C 137.528 141.223,137.028 141.998,136.418 142.591 L 135.307 143.670 125.706 143.754 C 115.656 143.842,114.781 143.909,115.805 144.515 C 116.211 144.755,119.159 144.917,124.944 145.019 C 134.464 145.186,134.030 145.097,134.503 146.974 C 134.922 148.641,135.289 148.505,135.543 146.588 C 135.743 145.078,137.063 143.221,137.937 143.221 C 138.454 143.221,138.859 141.713,138.579 140.831 C 138.322 140.023,137.528 140.051,137.528 140.869 M258.313 142.254 C 257.881 143.063,257.867 148.511,258.297 148.776 C 258.836 149.109,258.925 148.765,259.094 145.688 C 259.272 142.469,258.952 141.062,258.313 142.254 M153.118 142.432 C 152.727 142.824,152.728 143.269,153.124 144.311 L 153.439 145.139 154.142 144.258 C 155.025 143.151,158.255 142.967,158.996 143.980 C 160.860 146.530,157.484 149.263,153.753 148.225 C 152.827 147.967,152.004 147.821,151.925 147.900 C 151.671 148.154,151.751 156.341,152.010 156.602 C 152.473 157.069,153.139 155.725,152.921 154.762 C 152.653 153.578,152.766 151.352,153.129 150.674 C 153.838 149.349,159.700 149.010,159.700 150.294 C 159.700 150.524,159.903 150.712,160.150 150.712 C 160.568 150.712,160.758 151.444,160.609 152.488 C 160.516 153.143,159.074 154.549,158.295 154.744 C 157.574 154.925,157.347 155.670,157.951 155.871 C 158.893 156.185,160.066 155.704,160.351 154.887 C 160.549 154.319,160.920 153.985,161.490 153.859 C 163.093 153.507,162.623 150.817,160.889 150.411 C 159.971 150.197,159.823 149.276,160.283 146.635 C 160.681 144.352,160.198 142.739,159.046 142.498 C 157.528 142.181,153.416 142.135,153.118 142.432 M264.678 142.371 C 264.536 142.591,264.352 144.877,264.270 147.450 L 264.120 152.129 263.146 153.039 C 262.610 153.539,262.172 154.096,262.172 154.278 C 262.172 154.731,258.795 154.705,258.337 154.247 C 258.139 154.049,257.971 153.409,257.964 152.824 C 257.957 152.239,257.783 151.367,257.577 150.886 L 257.204 150.011 256.840 151.225 C 255.962 154.157,254.682 153.553,254.682 150.206 C 254.682 146.952,254.560 146.816,251.645 146.816 C 249.067 146.816,246.979 148.045,247.243 149.407 C 247.401 150.225,248.052 150.219,248.258 149.397 C 248.772 147.350,250.300 147.946,250.565 150.297 C 250.672 151.250,250.918 151.796,251.388 152.125 C 251.987 152.545,252.038 152.763,251.869 154.200 C 251.652 156.048,252.374 156.478,253.306 155.056 C 253.692 154.467,254.048 154.307,254.978 154.307 C 256.560 154.307,256.826 154.865,256.587 157.685 C 256.332 160.698,256.673 163.324,257.341 163.499 C 257.622 163.572,257.982 163.927,258.141 164.288 C 258.715 165.584,260.536 164.963,260.856 163.361 C 261.076 162.263,260.418 162.043,259.343 162.856 C 258.243 163.688,257.678 162.721,257.678 160.005 C 257.678 157.182,258.464 155.935,259.476 157.154 C 259.944 157.718,260.674 157.739,260.674 157.187 C 260.674 155.509,263.077 154.808,263.922 156.240 C 264.475 157.179,264.644 157.266,265.802 157.212 C 266.926 157.160,267.100 157.241,267.290 157.903 C 267.671 159.226,267.579 161.502,267.108 162.412 C 266.574 163.445,266.574 163.445,265.592 162.802 C 264.645 162.181,264.206 162.563,264.519 163.735 C 264.895 165.142,267.266 165.292,267.266 163.909 C 267.266 163.775,267.549 163.591,267.894 163.501 C 268.647 163.304,268.688 157.327,267.938 157.078 C 267.664 156.987,267.726 156.722,268.163 156.108 C 269.064 154.842,268.929 154.607,267.303 154.607 C 265.461 154.607,265.038 154.154,265.278 152.437 C 265.884 148.096,265.470 141.144,264.678 142.371 M211.375 146.420 C 209.565 146.781,208.562 148.626,208.546 151.627 C 208.541 152.605,208.327 153.280,207.790 154.007 C 206.964 155.128,206.830 155.805,207.437 155.805 C 207.654 155.805,208.125 156.142,208.483 156.554 C 209.567 157.801,214.232 157.627,214.232 156.340 C 214.232 155.899,214.098 155.793,213.721 155.937 C 210.208 157.285,207.769 154.216,211.143 152.691 C 212.396 152.124,213.306 150.795,212.895 150.130 C 212.555 149.581,212.204 149.782,211.880 150.712 C 211.345 152.245,209.738 151.736,209.738 150.033 C 209.738 148.485,210.199 148.022,211.678 148.086 C 212.407 148.118,213.089 148.059,213.193 147.956 C 213.403 147.745,212.474 146.194,212.175 146.258 C 212.071 146.280,211.711 146.353,211.375 146.420 M240.846 146.460 C 239.897 146.569,239.265 147.228,239.506 147.856 C 239.630 148.181,239.932 148.253,240.601 148.120 C 241.317 147.976,241.690 148.091,242.264 148.630 C 243.151 149.463,243.692 149.123,243.544 147.827 C 243.469 147.171,243.268 146.941,242.697 146.861 C 242.285 146.803,241.880 146.669,241.798 146.562 C 241.715 146.455,241.287 146.409,240.846 146.460 M280.711 146.762 C 279.627 147.303,279.163 148.315,279.998 148.315 C 280.268 148.315,280.740 148.180,281.047 148.016 C 281.917 147.551,282.511 147.968,282.869 149.296 C 283.272 150.794,283.734 150.309,283.741 148.380 C 283.744 147.417,283.614 147.057,283.221 146.935 C 282.933 146.846,282.477 146.657,282.208 146.515 C 281.894 146.349,281.362 146.436,280.711 146.762 M272.960 146.775 C 272.185 147.001,271.876 147.704,272.192 148.527 C 272.349 148.935,272.484 148.902,273.130 148.295 C 274.096 147.387,274.832 147.775,275.084 149.324 C 275.415 151.355,275.897 151.219,276.129 149.029 C 276.348 146.954,275.188 146.128,272.960 146.775 M194.140 147.094 C 193.718 147.225,193.079 147.491,192.720 147.683 C 192.194 147.964,191.919 147.937,191.314 147.540 C 190.438 146.966,190.371 147.240,191.053 148.608 C 191.450 149.403,191.508 150.112,191.355 152.271 C 191.167 154.920,191.171 154.947,191.837 154.852 C 192.433 154.767,192.535 154.521,192.739 152.673 C 192.889 151.318,193.164 150.375,193.526 149.976 C 193.832 149.639,194.248 149.043,194.450 148.653 C 194.778 148.016,194.957 147.961,196.155 148.125 C 197.415 148.298,197.488 148.269,197.399 147.638 C 197.293 146.895,195.653 146.621,194.140 147.094 M200.180 147.583 C 199.620 147.985,198.841 148.315,198.448 148.315 L 197.734 148.315 197.818 151.985 C 197.920 156.421,198.648 157.377,198.992 153.528 C 199.103 152.284,199.439 150.914,199.801 150.232 C 200.141 149.589,200.496 148.810,200.590 148.499 C 200.760 147.940,202.898 147.941,203.805 148.501 C 204.255 148.780,203.904 151.238,203.322 151.881 C 201.600 153.784,203.085 157.446,205.496 157.245 C 206.953 157.123,207.168 156.265,205.811 155.994 C 204.047 155.641,203.331 153.329,204.504 151.778 C 205.041 151.068,205.086 148.735,204.569 148.404 C 204.363 148.273,204.046 147.895,203.865 147.566 C 203.362 146.653,201.463 146.662,200.180 147.583 M223.853 147.214 C 223.058 147.678,222.349 148.784,222.333 149.588 C 222.327 149.876,222.136 150.112,221.908 150.112 C 221.371 150.112,221.133 151.046,221.128 153.162 C 221.122 155.734,222.303 156.530,225.074 155.820 C 226.621 155.423,226.450 155.371,228.506 156.866 C 229.247 157.405,230.712 157.176,230.712 156.522 C 230.712 156.248,230.364 156.105,229.695 156.105 C 228.201 156.105,227.765 152.945,228.743 149.204 C 228.978 148.303,229.077 147.468,228.961 147.349 C 228.514 146.889,224.590 146.785,223.853 147.214 M116.229 147.341 C 116.134 148.180,116.344 150.898,116.545 151.423 C 116.934 152.437,117.359 150.202,117.208 147.940 C 117.160 147.213,116.303 146.689,116.229 147.341 M164.069 147.466 C 163.739 148.514,163.637 150.910,163.905 151.311 C 164.474 152.161,165.131 150.778,165.031 148.938 C 164.949 147.410,164.367 146.520,164.069 147.466 M169.523 147.321 C 169.010 147.455,168.913 147.800,168.526 150.861 C 168.422 151.685,168.159 152.562,167.943 152.809 C 167.398 153.432,166.605 155.419,166.817 155.631 C 166.913 155.727,167.704 155.805,168.574 155.805 C 169.766 155.805,170.233 155.935,170.463 156.330 C 170.753 156.827,170.769 156.827,170.777 156.322 C 170.786 155.844,171.098 155.797,173.889 155.852 C 176.791 155.909,177.083 155.859,178.401 155.087 C 179.526 154.428,179.896 154.334,180.242 154.621 C 180.803 155.087,180.794 155.695,180.222 155.915 C 179.974 156.010,179.616 156.426,179.428 156.840 C 179.239 157.253,178.845 157.668,178.552 157.761 C 178.259 157.854,177.932 158.327,177.825 158.813 C 177.718 159.299,177.459 159.799,177.249 159.923 C 176.162 160.567,175.730 164.047,176.642 164.805 C 178.047 165.971,180.435 165.094,180.488 163.392 C 180.530 162.054,179.955 161.847,179.383 162.994 C 178.958 163.848,178.022 164.147,177.643 163.550 C 177.153 162.777,177.332 160.597,177.903 160.394 C 178.191 160.291,178.717 159.858,179.071 159.431 C 179.868 158.472,180.974 159.168,180.974 160.628 C 180.974 161.587,181.423 162.021,181.691 161.322 C 181.791 161.062,181.873 160.250,181.873 159.516 C 181.873 157.477,182.516 156.236,183.791 155.815 C 184.384 155.619,184.869 155.273,184.869 155.045 C 184.869 154.817,185.164 154.355,185.525 154.019 L 186.180 153.408 185.297 153.408 C 184.738 153.408,184.276 153.628,184.040 154.007 C 182.882 155.861,181.734 154.181,181.955 150.957 C 182.169 147.839,181.581 145.927,181.121 148.240 C 180.871 149.493,179.160 152.585,178.375 153.203 C 177.992 153.505,177.678 153.951,177.678 154.195 C 177.678 154.541,177.335 154.618,176.105 154.547 L 174.532 154.457 174.446 151.536 C 174.397 149.857,174.497 148.360,174.681 148.016 C 174.963 147.489,174.910 147.416,174.243 147.416 C 173.825 147.416,173.478 147.449,173.472 147.491 C 173.467 147.532,173.341 148.914,173.194 150.562 C 172.929 153.536,172.919 153.565,171.796 154.508 L 170.665 155.458 170.093 154.807 C 169.321 153.930,169.561 149.963,170.476 148.483 C 171.248 147.232,171.002 146.932,169.523 147.321 M226.757 148.375 C 228.128 149.746,226.169 154.607,224.244 154.607 C 222.518 154.607,222.322 154.402,222.322 152.595 C 222.322 151.275,222.471 150.771,223.071 150.058 C 223.483 149.568,223.820 148.987,223.820 148.766 C 223.820 148.020,226.098 147.716,226.757 148.375 M253.012 148.486 C 253.991 149.465,253.450 151.610,252.225 151.610 C 251.579 151.610,251.433 148.987,252.045 148.375 C 252.492 147.927,252.448 147.922,253.012 148.486 M238.368 148.588 C 237.525 149.952,237.994 155.584,238.964 155.756 C 239.287 155.813,239.763 156.129,240.022 156.459 C 240.332 156.854,240.743 157.017,241.221 156.935 L 241.948 156.811 241.124 156.465 C 240.670 156.275,240.300 155.976,240.300 155.801 C 240.300 155.625,240.011 155.091,239.658 154.613 C 239.080 153.832,239.031 153.474,239.171 151.030 C 239.318 148.444,239.019 147.535,238.368 148.588 M278.518 148.989 C 278.454 149.195,278.321 150.375,278.222 151.610 C 278.067 153.544,277.938 153.934,277.298 154.407 C 276.496 154.999,276.301 155.805,276.959 155.805 C 277.182 155.805,277.998 156.142,278.773 156.554 C 280.780 157.622,284.045 157.587,284.045 156.498 C 284.045 156.165,283.728 156.074,282.772 156.131 C 279.531 156.323,279.067 156.043,279.429 154.113 C 279.597 153.215,279.769 153.062,280.949 152.765 C 282.055 152.487,282.262 152.324,282.181 151.796 C 282.080 151.141,281.949 151.105,280.856 151.436 C 279.866 151.736,279.191 150.884,279.426 149.633 C 279.617 148.614,278.810 148.040,278.518 148.989 M270.754 149.875 C 270.653 150.253,270.568 150.991,270.566 151.515 C 270.563 152.230,270.337 152.629,269.663 153.109 C 268.727 153.775,268.494 154.307,269.139 154.307 C 269.345 154.307,270.099 154.987,270.814 155.818 L 272.116 157.329 274.107 157.242 C 275.763 157.168,276.116 157.061,276.204 156.602 C 276.295 156.125,276.132 156.061,275.009 156.128 C 271.922 156.314,271.760 156.249,271.760 154.816 C 271.760 153.427,272.154 152.809,273.038 152.809 C 273.969 152.809,274.752 152.247,274.551 151.724 C 274.416 151.371,274.111 151.289,273.382 151.407 C 272.295 151.583,271.875 151.264,271.714 150.136 C 271.577 149.173,270.985 149.013,270.754 149.875 M133.379 151.174 C 133.001 152.620,132.833 161.665,133.166 162.671 C 133.665 164.180,133.963 162.373,134.143 156.758 C 134.332 150.824,134.036 148.661,133.379 151.174 M246.205 150.637 C 246.137 150.760,245.909 151.701,245.698 152.728 C 245.332 154.508,245.267 154.603,244.302 154.784 C 243.745 154.889,243.215 155.094,243.125 155.240 C 242.840 155.702,245.003 155.527,245.393 155.056 C 245.920 154.421,246.289 154.492,247.251 155.414 C 247.928 156.062,248.167 156.146,248.466 155.842 C 248.764 155.540,248.673 155.320,248.012 154.747 C 247.338 154.164,247.149 153.693,246.995 152.221 C 246.824 150.587,246.542 150.020,246.205 150.637 M232.083 153.274 C 231.871 154.117,232.099 154.711,232.530 154.444 C 232.886 154.224,232.895 152.897,232.541 152.679 C 232.394 152.588,232.188 152.856,232.083 153.274 M215.002 154.154 C 214.419 155.550,214.416 155.506,215.097 155.506 C 215.504 155.506,215.705 155.233,215.814 154.532 C 216.038 153.093,215.542 152.862,215.002 154.154 M117.593 154.654 C 117.088 156.953,117.770 165.367,118.534 166.276 C 118.929 166.745,119.251 167.268,119.251 167.439 C 119.251 167.973,120.136 168.048,125.794 167.993 L 131.288 167.940 132.011 167.099 C 132.840 166.136,132.916 165.617,132.302 165.108 C 131.944 164.811,131.837 164.927,131.676 165.789 C 131.518 166.632,131.316 166.860,130.605 167.003 C 126.839 167.756,120.941 167.403,120.246 166.382 C 120.043 166.085,119.657 165.618,119.388 165.343 C 118.992 164.939,118.849 163.789,118.641 159.350 C 118.342 152.955,118.418 153.708,118.076 153.708 C 117.925 153.708,117.707 154.134,117.593 154.654 M284.410 154.913 C 284.092 155.423,284.109 155.549,284.518 155.706 C 285.070 155.918,285.565 155.313,285.333 154.709 C 285.118 154.148,284.851 154.207,284.410 154.913 M190.562 155.780 C 190.562 156.124,190.538 156.506,190.508 156.629 C 190.479 156.753,190.691 156.899,190.980 156.955 C 191.396 157.035,191.485 156.883,191.408 156.229 C 191.293 155.249,190.562 154.861,190.562 155.780 M164.013 155.931 C 163.678 156.803,164.127 157.303,165.243 157.303 C 166.315 157.303,166.965 156.640,166.407 156.116 C 165.821 155.567,164.201 155.442,164.013 155.931 M248.689 156.554 C 248.689 156.879,249.022 157.004,249.888 157.004 C 251.188 157.004,251.497 156.585,250.412 156.294 C 249.285 155.992,248.689 156.082,248.689 156.554 M154.906 156.704 C 154.906 156.869,155.109 157.004,155.356 157.004 C 155.603 157.004,155.805 156.869,155.805 156.704 C 155.805 156.539,155.603 156.404,155.356 156.404 C 155.109 156.404,154.906 156.539,154.906 156.704 M261.416 159.423 C 261.184 160.156,261.521 161.798,261.904 161.798 C 262.314 161.798,262.816 160.313,262.618 159.688 C 262.366 158.896,261.635 158.734,261.416 159.423 " stroke="none" fill="#202021" fill-rule="evenodd"></path><path id="path3" d="M121.049 130.838 C 117.192 131.115,115.356 132.054,115.356 133.749 C 115.356 135.389,116.419 136.026,119.700 136.352 C 121.348 136.515,122.904 136.763,123.158 136.902 C 124.224 137.486,126.150 137.592,126.891 137.107 C 127.291 136.844,128.087 136.629,128.659 136.629 C 130.150 136.629,131.192 136.154,131.583 135.296 C 131.983 134.419,132.231 134.512,132.863 135.779 C 133.424 136.902,132.997 137.399,131.236 137.672 C 130.659 137.761,129.612 137.968,128.910 138.131 C 127.089 138.553,124.030 138.494,123.120 138.019 C 122.660 137.779,120.710 137.527,118.324 137.401 L 114.303 137.188 113.331 138.286 C 111.840 139.970,111.870 143.076,113.388 144.234 C 115.146 145.575,115.690 145.647,124.481 145.709 L 132.884 145.768 132.862 146.966 C 132.807 150.038,132.100 159.394,131.833 160.599 C 131.668 161.341,131.365 162.891,131.160 164.043 C 130.715 166.542,130.768 166.518,125.693 166.526 C 120.054 166.536,119.798 166.160,119.256 157.078 C 118.774 149.000,118.110 146.217,116.665 146.217 C 115.354 146.217,115.112 151.906,116.256 155.805 C 116.425 156.382,116.709 158.937,116.888 161.483 C 117.363 168.270,118.946 169.588,126.621 169.588 C 132.835 169.588,134.749 166.930,134.820 158.202 C 134.831 156.801,135.038 154.819,135.279 153.797 C 135.520 152.774,135.846 150.550,136.003 148.853 L 136.288 145.768 137.807 144.419 C 140.065 142.415,139.974 140.345,137.522 137.892 C 136.558 136.928,136.187 136.277,135.986 135.202 C 135.783 134.113,135.413 133.474,134.397 132.458 L 133.073 131.133 129.982 130.902 C 126.929 130.673,123.671 130.650,121.049 130.838 M131.510 131.725 C 134.073 132.238,132.018 132.585,126.259 132.613 C 121.998 132.633,120.076 132.753,119.560 133.029 L 118.837 133.415 119.527 133.974 C 120.142 134.472,120.794 134.532,125.598 134.532 C 130.563 134.532,130.972 134.573,130.880 135.056 C 130.776 135.593,119.961 136.035,118.102 135.578 C 117.421 135.411,115.955 134.073,115.955 133.619 C 115.955 133.353,117.934 132.086,118.801 131.796 C 119.577 131.536,130.269 131.477,131.510 131.725 M133.921 133.169 C 134.332 133.665,134.240 134.580,133.762 134.739 C 133.345 134.877,132.603 133.489,132.866 133.062 C 133.143 132.615,133.490 132.650,133.921 133.169 M128.839 133.633 C 128.592 133.793,126.906 133.923,125.094 133.923 C 123.281 133.923,121.596 133.793,121.348 133.633 C 121.046 133.438,122.276 133.343,125.094 133.343 C 127.911 133.343,129.141 133.438,128.839 133.633 M135.584 136.647 C 135.694 137.147,136.042 137.718,136.357 137.914 C 136.671 138.111,136.929 138.501,136.929 138.781 C 136.929 139.061,137.075 139.381,137.255 139.492 C 137.488 139.636,137.489 139.785,137.256 140.017 C 137.024 140.250,136.759 140.155,136.320 139.684 C 135.983 139.322,135.409 139.024,135.045 139.022 C 133.797 139.013,133.548 138.635,134.043 137.500 C 134.288 136.939,134.564 136.235,134.658 135.936 C 134.889 135.196,135.342 135.543,135.584 136.647 M116.806 138.024 C 117.448 138.195,117.385 138.277,116.063 138.993 C 114.274 139.962,113.778 141.042,114.525 142.345 C 115.089 143.327,113.836 144.142,113.231 143.187 C 111.748 140.846,114.188 137.323,116.806 138.024 M132.596 139.447 C 133.489 140.100,131.474 140.282,124.594 140.170 C 118.906 140.078,117.722 139.907,118.660 139.314 C 119.421 138.833,131.919 138.952,132.596 139.447 M124.727 140.760 C 129.417 140.830,132.716 140.749,133.685 140.541 C 135.577 140.135,136.740 140.773,135.868 141.737 C 133.781 144.042,113.503 143.395,114.940 141.069 C 115.224 140.610,116.364 140.245,116.854 140.456 C 117.101 140.562,120.644 140.699,124.727 140.760 M138.579 140.831 C 138.859 141.713,138.454 143.221,137.937 143.221 C 137.063 143.221,135.743 145.078,135.543 146.588 C 135.289 148.505,134.922 148.641,134.503 146.974 C 134.030 145.097,134.464 145.186,124.944 145.019 C 119.159 144.917,116.211 144.755,115.805 144.515 C 114.781 143.909,115.656 143.842,125.706 143.754 L 135.307 143.670 136.418 142.591 C 137.028 141.998,137.528 141.223,137.528 140.869 C 137.528 140.051,138.322 140.023,138.579 140.831 M152.572 141.547 C 151.542 142.720,151.434 143.374,151.033 150.805 C 150.660 157.723,150.598 157.603,154.569 157.602 C 156.923 157.601,157.634 157.491,158.434 157.003 C 158.974 156.674,159.611 156.404,159.851 156.404 C 160.090 156.404,160.507 156.067,160.777 155.655 C 161.356 154.772,161.694 154.708,161.926 155.437 C 162.612 157.598,165.858 158.766,167.111 157.303 C 167.718 156.594,168.850 156.523,169.481 157.154 C 170.110 157.782,171.193 157.713,171.835 157.004 C 172.471 156.301,173.694 156.226,174.565 156.836 C 175.096 157.208,175.343 157.209,176.354 156.849 C 177.736 156.357,178.577 156.294,178.577 156.684 C 178.577 156.838,178.307 157.049,177.978 157.154 C 177.648 157.258,177.378 157.527,177.378 157.750 C 177.378 157.973,177.039 158.560,176.624 159.053 C 174.837 161.177,175.034 164.866,176.990 165.893 L 178.227 166.542 179.486 165.918 C 180.256 165.538,180.914 164.936,181.177 164.370 C 181.415 163.862,181.801 163.109,182.036 162.697 C 182.277 162.274,182.465 161.141,182.467 160.098 C 182.472 158.219,183.413 156.404,184.383 156.404 C 184.908 156.404,186.966 153.839,186.966 153.184 C 186.966 151.385,184.494 151.690,183.413 153.622 C 182.649 154.986,182.344 150.959,183.024 148.496 C 183.660 146.194,181.117 145.771,180.375 148.054 C 180.127 148.815,179.771 149.622,179.582 149.849 C 179.393 150.076,179.029 150.768,178.773 151.386 C 178.517 152.004,178.163 152.509,177.986 152.509 C 177.810 152.509,177.511 152.846,177.324 153.258 C 177.055 153.848,176.761 154.007,175.942 154.007 L 174.902 154.007 175.051 151.835 C 175.143 150.481,175.412 149.298,175.764 148.695 C 176.492 147.449,176.091 146.703,174.626 146.577 C 173.197 146.453,172.879 146.949,172.505 149.876 C 172.332 151.235,172.009 152.529,171.788 152.750 C 171.567 152.971,171.386 153.330,171.386 153.547 C 171.386 153.985,170.650 154.371,170.363 154.083 C 170.080 153.800,170.533 150.932,170.967 150.262 C 172.288 148.224,171.619 145.994,169.789 146.338 C 168.488 146.582,168.236 146.999,167.972 149.342 C 167.862 150.320,167.524 151.533,167.221 152.039 C 166.917 152.545,166.581 153.330,166.475 153.783 C 165.962 155.961,164.941 154.207,165.343 151.838 C 165.997 147.985,166.010 147.225,165.434 146.703 C 164.333 145.707,163.489 146.218,163.139 148.093 C 162.982 148.931,162.750 149.264,162.230 149.394 C 160.990 149.706,160.843 149.352,161.056 146.562 C 161.373 142.395,160.400 141.259,156.699 141.472 C 155.762 141.526,154.806 141.423,154.576 141.244 C 153.660 140.530,153.435 140.564,152.572 141.547 M258.357 140.775 C 257.544 141.277,255.893 148.255,255.876 151.259 C 255.872 151.886,255.808 151.962,255.581 151.610 C 255.421 151.363,255.288 150.377,255.285 149.419 C 255.276 145.673,253.303 144.757,248.778 146.399 C 247.268 146.946,245.669 149.210,245.342 151.264 C 245.094 152.826,244.450 153.611,242.846 154.308 C 240.393 155.374,239.183 153.674,239.887 150.154 L 240.073 149.222 240.958 149.967 C 243.574 152.167,245.724 148.485,243.192 146.142 C 241.651 144.716,240.690 144.792,239.006 146.473 C 236.904 148.572,236.534 155.930,238.499 156.553 C 238.800 156.649,239.121 156.924,239.214 157.165 C 239.483 157.865,242.256 157.744,243.322 156.985 C 244.819 155.919,246.176 155.881,247.215 156.876 C 248.936 158.526,251.549 157.981,254.147 155.431 C 255.575 154.029,255.828 154.567,255.933 159.221 L 256.030 163.535 257.175 164.614 C 258.835 166.178,260.969 166.046,261.394 164.352 C 261.683 163.204,263.195 163.285,263.813 164.481 C 264.651 166.102,266.742 166.013,268.341 164.288 C 269.204 163.356,269.568 160.423,269.094 158.212 C 268.639 156.093,269.236 155.002,270.074 156.420 C 271.137 158.219,274.695 158.797,276.685 157.493 C 277.336 157.067,277.498 157.080,278.682 157.652 C 281.235 158.885,286.142 157.425,286.142 155.433 C 286.142 155.295,286.422 154.803,286.764 154.341 C 287.914 152.785,287.045 150.406,285.804 151.714 C 285.578 151.952,285.056 152.583,284.644 153.115 C 282.737 155.580,282.685 155.615,280.974 155.541 C 279.381 155.472,279.960 153.715,281.714 153.296 C 282.163 153.189,282.678 152.823,282.860 152.483 C 283.042 152.143,283.433 151.623,283.728 151.328 C 285.110 149.946,284.798 146.912,283.156 145.775 C 280.830 144.162,277.985 146.583,277.620 150.487 C 277.323 153.654,275.976 155.506,273.967 155.506 C 272.980 155.506,272.659 155.391,272.659 155.036 C 272.659 154.257,273.248 153.408,273.788 153.408 C 275.060 153.408,276.854 150.778,276.854 148.912 C 276.854 143.181,270.470 144.675,270.021 150.511 C 269.925 151.765,269.750 152.307,269.400 152.434 C 269.133 152.532,268.524 152.932,268.049 153.325 C 265.956 155.051,265.360 152.219,266.426 145.618 C 266.988 142.134,266.815 141.457,265.237 140.984 C 264.227 140.681,263.784 142.094,263.571 146.296 C 263.343 150.799,262.986 151.990,261.514 153.156 C 260.216 154.183,258.684 154.186,259.010 153.161 C 260.371 148.873,259.894 139.825,258.357 140.775 M259.094 145.688 C 258.925 148.765,258.836 149.109,258.297 148.776 C 257.867 148.511,257.881 143.063,258.313 142.254 C 258.952 141.062,259.272 142.469,259.094 145.688 M159.046 142.498 C 160.198 142.739,160.681 144.352,160.283 146.635 C 159.823 149.276,159.971 150.197,160.889 150.411 C 162.623 150.817,163.093 153.507,161.490 153.859 C 160.920 153.985,160.549 154.319,160.351 154.887 C 160.066 155.704,158.893 156.185,157.951 155.871 C 157.347 155.670,157.574 154.925,158.295 154.744 C 159.074 154.549,160.516 153.143,160.609 152.488 C 160.758 151.444,160.568 150.712,160.150 150.712 C 159.903 150.712,159.700 150.524,159.700 150.294 C 159.700 149.010,153.838 149.349,153.129 150.674 C 152.766 151.352,152.653 153.578,152.921 154.762 C 153.139 155.725,152.473 157.069,152.010 156.602 C 151.751 156.341,151.671 148.154,151.925 147.900 C 152.004 147.821,152.827 147.967,153.753 148.225 C 157.484 149.263,160.860 146.530,158.996 143.980 C 158.255 142.967,155.025 143.151,154.142 144.258 L 153.439 145.139 153.124 144.311 C 152.399 142.403,152.811 142.094,155.890 142.238 C 157.244 142.301,158.664 142.418,159.046 142.498 M265.506 146.875 C 265.478 149.232,265.376 151.735,265.278 152.437 C 265.038 154.154,265.461 154.607,267.303 154.607 C 268.929 154.607,269.064 154.842,268.163 156.108 C 267.726 156.722,267.664 156.987,267.938 157.078 C 268.688 157.327,268.647 163.304,267.894 163.501 C 267.549 163.591,267.266 163.775,267.266 163.909 C 267.266 165.292,264.895 165.142,264.519 163.735 C 264.206 162.563,264.645 162.181,265.592 162.802 C 266.574 163.445,266.574 163.445,267.108 162.412 C 267.579 161.502,267.671 159.226,267.290 157.903 C 267.100 157.241,266.926 157.160,265.802 157.212 C 264.644 157.266,264.475 157.179,263.922 156.240 C 263.077 154.808,260.674 155.509,260.674 157.187 C 260.674 157.739,259.944 157.718,259.476 157.154 C 258.464 155.935,257.678 157.182,257.678 160.005 C 257.678 162.721,258.243 163.688,259.343 162.856 C 260.418 162.043,261.076 162.263,260.856 163.361 C 260.536 164.963,258.715 165.584,258.141 164.288 C 257.982 163.927,257.622 163.572,257.341 163.499 C 256.673 163.324,256.332 160.698,256.587 157.685 C 256.826 154.865,256.560 154.307,254.978 154.307 C 254.048 154.307,253.692 154.467,253.306 155.056 C 252.374 156.478,251.652 156.048,251.869 154.200 C 252.038 152.763,251.987 152.545,251.388 152.125 C 250.918 151.796,250.672 151.250,250.565 150.297 C 250.300 147.946,248.772 147.350,248.258 149.397 C 248.052 150.219,247.401 150.225,247.243 149.407 C 246.979 148.045,249.067 146.816,251.645 146.816 C 254.560 146.816,254.682 146.952,254.682 150.206 C 254.682 153.553,255.962 154.157,256.840 151.225 L 257.204 150.011 257.577 150.886 C 257.783 151.367,257.957 152.239,257.964 152.824 C 257.971 153.409,258.139 154.049,258.337 154.247 C 258.795 154.705,262.172 154.731,262.172 154.278 C 262.172 154.096,262.610 153.539,263.146 153.039 L 264.120 152.129 264.270 147.450 C 264.419 142.799,264.633 141.666,265.246 142.280 C 265.435 142.469,265.536 144.258,265.506 146.875 M158.594 145.142 C 158.834 145.864,158.786 146.082,158.318 146.402 C 158.007 146.615,157.551 146.979,157.303 147.210 C 156.794 147.688,155.292 148.029,154.701 147.802 C 154.226 147.620,154.201 146.760,154.626 145.229 L 154.942 144.091 156.624 144.180 C 158.182 144.263,158.326 144.333,158.594 145.142 M211.088 145.239 C 209.804 145.564,208.335 147.476,207.993 149.270 C 206.739 155.844,205.332 156.894,205.500 151.130 L 205.592 147.969 204.356 146.793 C 202.866 145.376,202.270 145.339,200.074 146.528 C 198.704 147.270,198.349 147.360,198.148 147.016 C 197.591 146.060,195.497 145.305,194.942 145.860 C 194.578 146.225,193.888 146.375,192.480 146.396 C 189.862 146.435,189.560 146.750,189.976 149.000 C 190.200 150.208,190.197 151.576,189.968 153.658 C 189.529 157.644,189.872 158.324,191.892 157.480 C 192.870 157.072,192.895 157.014,193.232 154.412 C 193.420 152.954,193.770 151.423,194.009 151.011 C 194.248 150.599,194.595 149.891,194.779 149.438 C 195.914 146.652,197.629 151.361,196.576 154.371 C 196.181 155.498,196.905 156.404,198.199 156.404 C 199.133 156.404,199.439 155.915,199.643 154.096 C 199.740 153.238,200.017 152.227,200.260 151.849 C 200.502 151.470,200.850 150.594,201.032 149.900 C 201.763 147.127,202.635 149.006,202.157 152.323 C 201.481 157.020,203.926 159.487,207.226 157.437 C 207.711 157.135,207.942 157.125,208.212 157.395 C 209.616 158.799,213.490 158.424,215.206 156.718 C 216.325 155.604,217.710 152.448,217.342 151.851 C 216.925 151.177,214.532 152.414,214.532 153.303 C 214.532 154.391,211.525 156.055,210.596 155.481 C 209.894 155.047,210.660 153.653,211.813 153.265 C 214.371 152.406,215.461 148.251,213.641 146.292 C 212.472 145.033,212.256 144.944,211.088 145.239 M223.605 146.389 C 223.074 146.621,222.415 147.250,222.139 147.787 C 221.864 148.325,221.388 149.086,221.081 149.479 C 220.503 150.220,220.252 154.970,220.754 155.657 C 221.949 157.294,223.755 157.765,225.160 156.807 C 226.007 156.230,226.680 156.309,227.166 157.042 C 228.398 158.896,233.320 156.978,233.416 154.607 C 233.426 154.360,233.616 153.649,233.838 153.027 C 234.204 152.000,234.191 151.869,233.695 151.603 C 232.492 150.960,231.927 151.240,231.545 152.668 C 231.273 153.684,230.936 154.170,230.201 154.603 L 229.219 155.183 229.028 154.420 C 228.761 153.357,229.091 150.919,229.647 149.844 C 230.207 148.760,230.254 147.243,229.738 146.910 C 228.451 146.081,224.982 145.786,223.605 146.389 M212.873 146.992 C 213.518 147.976,213.320 148.158,211.678 148.086 C 210.199 148.022,209.738 148.485,209.738 150.033 C 209.738 151.736,211.345 152.245,211.880 150.712 C 212.204 149.782,212.555 149.581,212.895 150.130 C 213.306 150.795,212.396 152.124,211.143 152.691 C 207.769 154.216,210.208 157.285,213.721 155.937 C 214.098 155.793,214.232 155.899,214.232 156.340 C 214.232 157.627,209.567 157.801,208.483 156.554 C 208.125 156.142,207.654 155.805,207.437 155.805 C 206.830 155.805,206.964 155.128,207.790 154.007 C 208.327 153.280,208.541 152.605,208.546 151.627 C 208.562 148.626,209.565 146.781,211.375 146.420 C 211.711 146.353,212.071 146.280,212.175 146.258 C 212.280 146.236,212.594 146.566,212.873 146.992 M242.697 146.861 C 243.268 146.941,243.469 147.171,243.544 147.827 C 243.692 149.123,243.151 149.463,242.264 148.630 C 241.690 148.091,241.317 147.976,240.601 148.120 C 239.561 148.328,239.075 147.720,239.689 146.980 C 240.065 146.527,241.545 146.233,241.798 146.562 C 241.880 146.669,242.285 146.803,242.697 146.861 M283.221 146.935 C 283.614 147.057,283.744 147.417,283.741 148.380 C 283.734 150.309,283.272 150.794,282.869 149.296 C 282.511 147.968,281.917 147.551,281.047 148.016 C 280.167 148.487,279.494 148.382,279.604 147.790 C 279.737 147.080,281.574 146.180,282.208 146.515 C 282.477 146.657,282.933 146.846,283.221 146.935 M276.044 147.219 C 276.289 147.573,276.102 150.365,275.815 150.652 C 275.534 150.933,275.267 150.448,275.084 149.324 C 274.832 147.775,274.096 147.387,273.130 148.295 C 272.322 149.053,271.881 148.718,272.111 147.521 C 272.297 146.557,275.420 146.316,276.044 147.219 M197.399 147.638 C 197.488 148.269,197.415 148.298,196.155 148.125 C 194.957 147.961,194.778 148.016,194.450 148.653 C 194.248 149.043,193.832 149.639,193.526 149.976 C 193.164 150.375,192.889 151.318,192.739 152.673 C 192.535 154.521,192.433 154.767,191.837 154.852 C 191.171 154.947,191.167 154.920,191.355 152.271 C 191.508 150.112,191.450 149.403,191.053 148.608 C 190.371 147.240,190.438 146.966,191.314 147.540 C 191.919 147.937,192.194 147.964,192.720 147.683 C 194.727 146.608,197.249 146.584,197.399 147.638 M203.865 147.566 C 204.046 147.895,204.363 148.273,204.569 148.404 C 205.086 148.735,205.041 151.068,204.504 151.778 C 203.331 153.329,204.047 155.641,205.811 155.994 C 207.168 156.265,206.953 157.123,205.496 157.245 C 203.085 157.446,201.600 153.784,203.322 151.881 C 203.904 151.238,204.255 148.780,203.805 148.501 C 202.898 147.941,200.760 147.940,200.590 148.499 C 200.496 148.810,200.141 149.589,199.801 150.232 C 199.439 150.914,199.103 152.284,198.992 153.528 C 198.648 157.377,197.920 156.421,197.818 151.985 L 197.734 148.315 198.448 148.315 C 198.841 148.315,199.620 147.985,200.180 147.583 C 201.463 146.662,203.362 146.653,203.865 147.566 M228.961 147.349 C 229.077 147.468,228.978 148.303,228.743 149.204 C 227.765 152.945,228.201 156.105,229.695 156.105 C 230.364 156.105,230.712 156.248,230.712 156.522 C 230.712 157.176,229.247 157.405,228.506 156.866 C 226.450 155.371,226.621 155.423,225.074 155.820 C 222.303 156.530,221.122 155.734,221.128 153.162 C 221.133 151.046,221.371 150.112,221.908 150.112 C 222.136 150.112,222.327 149.876,222.333 149.588 C 222.349 148.784,223.058 147.678,223.853 147.214 C 224.590 146.785,228.514 146.889,228.961 147.349 M117.208 147.940 C 117.359 150.202,116.934 152.437,116.545 151.423 C 116.344 150.898,116.134 148.180,116.229 147.341 C 116.303 146.689,117.160 147.213,117.208 147.940 M165.031 148.938 C 165.131 150.778,164.474 152.161,163.905 151.311 C 163.637 150.910,163.739 148.514,164.069 147.466 C 164.367 146.520,164.949 147.410,165.031 148.938 M170.882 147.312 C 170.990 147.420,170.807 147.946,170.476 148.483 C 169.561 149.963,169.321 153.930,170.093 154.807 L 170.665 155.458 171.796 154.508 C 172.919 153.565,172.929 153.536,173.194 150.562 C 173.341 148.914,173.467 147.532,173.472 147.491 C 173.478 147.449,173.825 147.416,174.243 147.416 C 174.910 147.416,174.963 147.489,174.681 148.016 C 174.497 148.360,174.397 149.857,174.446 151.536 L 174.532 154.457 176.105 154.547 C 177.335 154.618,177.678 154.541,177.678 154.195 C 177.678 153.951,177.992 153.505,178.375 153.203 C 179.160 152.585,180.871 149.493,181.121 148.240 C 181.581 145.927,182.169 147.839,181.955 150.957 C 181.734 154.181,182.882 155.861,184.040 154.007 C 184.276 153.628,184.738 153.408,185.297 153.408 L 186.180 153.408 185.525 154.019 C 185.164 154.355,184.869 154.817,184.869 155.045 C 184.869 155.273,184.384 155.619,183.791 155.815 C 182.516 156.236,181.873 157.477,181.873 159.516 C 181.873 160.250,181.791 161.062,181.691 161.322 C 181.423 162.021,180.974 161.587,180.974 160.628 C 180.974 159.168,179.868 158.472,179.071 159.431 C 178.717 159.858,178.191 160.291,177.903 160.394 C 177.332 160.597,177.153 162.777,177.643 163.550 C 178.022 164.147,178.958 163.848,179.383 162.994 C 179.955 161.847,180.530 162.054,180.488 163.392 C 180.435 165.094,178.047 165.971,176.642 164.805 C 175.730 164.047,176.162 160.567,177.249 159.923 C 177.459 159.799,177.718 159.299,177.825 158.813 C 177.932 158.327,178.259 157.854,178.552 157.761 C 178.845 157.668,179.239 157.253,179.428 156.840 C 179.616 156.426,179.974 156.010,180.222 155.915 C 180.794 155.695,180.803 155.087,180.242 154.621 C 179.896 154.334,179.526 154.428,178.401 155.087 C 177.083 155.859,176.791 155.909,173.889 155.852 C 171.098 155.797,170.786 155.844,170.777 156.322 C 170.769 156.827,170.753 156.827,170.463 156.330 C 170.233 155.935,169.766 155.805,168.574 155.805 C 167.704 155.805,166.913 155.727,166.817 155.631 C 166.605 155.419,167.398 153.432,167.943 152.809 C 168.159 152.562,168.422 151.685,168.526 150.861 C 168.913 147.800,169.010 147.455,169.523 147.321 C 170.345 147.105,170.673 147.103,170.882 147.312 M224.195 148.213 C 223.989 148.297,223.820 148.545,223.820 148.766 C 223.820 148.987,223.483 149.568,223.071 150.058 C 222.154 151.148,221.967 154.107,222.796 154.425 C 224.267 154.989,225.199 154.635,226.167 153.142 C 228.186 150.026,227.007 147.079,224.195 148.213 M252.045 148.375 C 251.433 148.987,251.579 151.610,252.225 151.610 C 253.450 151.610,253.991 149.465,253.012 148.486 C 252.448 147.922,252.492 147.927,252.045 148.375 M239.171 151.030 C 239.031 153.474,239.080 153.832,239.658 154.613 C 240.011 155.091,240.300 155.625,240.300 155.801 C 240.300 155.976,240.670 156.275,241.124 156.465 L 241.948 156.811 241.221 156.935 C 240.743 157.017,240.332 156.854,240.022 156.459 C 239.763 156.129,239.287 155.813,238.964 155.756 C 237.603 155.516,237.571 148.315,238.931 148.315 C 239.240 148.315,239.292 148.907,239.171 151.030 M274.307 149.513 C 274.162 149.748,273.990 149.765,273.790 149.565 C 273.625 149.401,273.588 149.107,273.708 148.914 C 273.853 148.679,274.025 148.662,274.225 148.862 C 274.390 149.026,274.427 149.320,274.307 149.513 M279.426 149.633 C 279.191 150.884,279.866 151.736,280.856 151.436 C 281.949 151.105,282.080 151.141,282.181 151.796 C 282.262 152.324,282.055 152.487,280.949 152.765 C 279.769 153.062,279.597 153.215,279.429 154.113 C 279.067 156.043,279.531 156.323,282.772 156.131 C 283.728 156.074,284.045 156.165,284.045 156.498 C 284.045 157.587,280.780 157.622,278.773 156.554 C 277.998 156.142,277.182 155.805,276.959 155.805 C 276.301 155.805,276.496 154.999,277.298 154.407 C 277.938 153.934,278.067 153.544,278.222 151.610 C 278.445 148.835,278.511 148.614,279.125 148.614 C 279.523 148.614,279.580 148.810,279.426 149.633 M211.331 149.588 C 211.032 150.947,210.928 151.123,210.610 150.805 C 210.442 150.637,210.393 150.142,210.503 149.706 C 210.749 148.726,211.546 148.612,211.331 149.588 M226.517 149.421 C 226.517 150.918,224.870 154.022,224.120 153.940 C 223.187 153.838,222.987 152.859,223.624 151.514 C 223.871 150.990,224.166 150.191,224.279 149.738 C 224.526 148.745,226.517 148.463,226.517 149.421 M249.867 150.913 C 249.879 151.467,250.202 152.237,250.639 152.757 C 251.508 153.790,251.395 154.379,250.251 154.792 C 248.457 155.438,247.643 153.066,248.746 150.411 C 249.449 148.720,249.822 148.887,249.867 150.913 M252.491 150.337 C 252.416 150.625,252.354 150.390,252.354 149.813 C 252.354 149.236,252.416 149.000,252.491 149.288 C 252.567 149.577,252.567 150.049,252.491 150.337 M271.714 150.136 C 271.875 151.264,272.295 151.583,273.382 151.407 C 274.111 151.289,274.416 151.371,274.551 151.724 C 274.752 152.247,273.969 152.809,273.038 152.809 C 272.154 152.809,271.760 153.427,271.760 154.816 C 271.760 156.249,271.922 156.314,275.009 156.128 C 276.132 156.061,276.295 156.125,276.204 156.602 C 276.116 157.061,275.763 157.168,274.107 157.242 L 272.116 157.329 270.814 155.818 C 270.099 154.987,269.345 154.307,269.139 154.307 C 268.494 154.307,268.727 153.775,269.663 153.109 C 270.337 152.629,270.563 152.230,270.566 151.515 C 270.575 149.438,271.462 148.372,271.714 150.136 M134.143 156.758 C 133.963 162.373,133.665 164.180,133.166 162.671 C 132.833 161.665,133.001 152.620,133.379 151.174 C 134.036 148.661,134.332 150.824,134.143 156.758 M159.060 151.190 C 159.240 151.586,159.519 151.910,159.680 151.910 C 160.511 151.910,158.532 153.958,157.263 154.411 C 154.769 155.301,153.408 154.844,153.408 153.117 C 153.408 150.614,158.073 149.024,159.060 151.190 M246.995 152.221 C 247.149 153.693,247.338 154.164,248.012 154.747 C 248.673 155.320,248.764 155.540,248.466 155.842 C 248.167 156.146,247.928 156.062,247.251 155.414 C 246.289 154.492,245.920 154.421,245.393 155.056 C 245.003 155.527,242.840 155.702,243.125 155.240 C 243.215 155.094,243.745 154.889,244.302 154.784 C 245.267 154.603,245.332 154.508,245.698 152.728 C 246.317 149.716,246.717 149.560,246.995 152.221 M232.809 153.558 C 232.809 154.331,232.362 154.796,232.071 154.326 C 231.814 153.909,232.221 152.481,232.541 152.679 C 232.689 152.770,232.809 153.166,232.809 153.558 M215.814 154.532 C 215.705 155.233,215.504 155.506,215.097 155.506 C 214.416 155.506,214.419 155.550,215.002 154.154 C 215.542 152.862,216.038 153.093,215.814 154.532 M118.368 153.783 C 118.377 153.824,118.500 156.329,118.641 159.350 C 118.849 163.789,118.992 164.939,119.388 165.343 C 119.657 165.618,120.043 166.085,120.246 166.382 C 120.941 167.403,126.839 167.756,130.605 167.003 C 131.316 166.860,131.518 166.632,131.676 165.789 C 131.837 164.927,131.944 164.811,132.302 165.108 C 132.916 165.617,132.840 166.136,132.011 167.099 L 131.288 167.940 125.794 167.993 C 120.136 168.048,119.251 167.973,119.251 167.439 C 119.251 167.268,118.929 166.745,118.534 166.276 C 117.421 164.953,117.011 153.708,118.076 153.708 C 118.228 153.708,118.359 153.742,118.368 153.783 M285.333 154.709 C 285.565 155.313,285.070 155.918,284.518 155.706 C 284.109 155.549,284.092 155.423,284.410 154.913 C 284.851 154.207,285.118 154.148,285.333 154.709 M191.408 156.229 C 191.485 156.883,191.396 157.035,190.980 156.955 C 190.691 156.899,190.479 156.753,190.508 156.629 C 190.538 156.506,190.562 156.124,190.562 155.780 C 190.562 154.861,191.293 155.249,191.408 156.229 M166.407 156.116 C 166.965 156.640,166.315 157.303,165.243 157.303 C 164.127 157.303,163.678 156.803,164.013 155.931 C 164.201 155.442,165.821 155.567,166.407 156.116 M250.412 156.294 C 251.497 156.585,251.188 157.004,249.888 157.004 C 249.022 157.004,248.689 156.879,248.689 156.554 C 248.689 156.082,249.285 155.992,250.412 156.294 M155.805 156.704 C 155.805 156.869,155.603 157.004,155.356 157.004 C 155.109 157.004,154.906 156.869,154.906 156.704 C 154.906 156.539,155.109 156.404,155.356 156.404 C 155.603 156.404,155.805 156.539,155.805 156.704 M259.700 159.016 C 260.255 160.207,260.157 161.107,259.416 161.626 C 258.548 162.234,258.288 161.821,258.282 159.825 C 258.275 157.697,258.915 157.332,259.700 159.016 M266.839 159.873 C 267.025 161.631,266.662 162.416,265.940 161.817 C 265.400 161.368,265.322 159.824,265.779 158.622 C 266.203 157.507,266.643 158.026,266.839 159.873 M262.618 159.688 C 262.816 160.313,262.314 161.798,261.904 161.798 C 261.521 161.798,261.184 160.156,261.416 159.423 C 261.635 158.734,262.366 158.896,262.618 159.688 M178.876 162.247 C 178.876 162.943,178.396 163.515,178.079 163.197 C 177.992 163.110,178.012 162.624,178.123 162.116 C 178.353 161.071,178.876 161.163,178.876 162.247 " stroke="none" fill="#7c741c" fill-rule="evenodd"></path><path id="path4" d="" stroke="none" fill="#100bcbc" fill-rule="evenodd"></path></g></svg>